<?xml version="1.0" encoding="UTF-8"?>
<svg id="Layer_1" data-name="Layer 1" xmlns="http://www.w3.org/2000/svg" xmlns:xlink="http://www.w3.org/1999/xlink" viewBox="0 0 1024 1024">
  <defs>
    <style>
      .cls-1 {
        fill: #fdfdfb;
      }

      .cls-2 {
        fill: url(#linear-gradient);
      }
    </style>
    <linearGradient id="linear-gradient" x1="512" y1="0" x2="512" y2="1024" gradientUnits="userSpaceOnUse">
      <stop offset="0" stop-color="#fdbb0b"/>
      <stop offset="1" stop-color="#d9423b"/>
    </linearGradient>
  </defs>
  <rect class="cls-2" x="0" width="1024" height="1024"/>
  <path class="cls-1" d="m279.17,376.71h.1c.02-.07.05-.15.05-.22,0,0-.12.22-.15.22Zm15.49-12.83h.1s.02-.12.02-.17l-.12.17Zm1.43-1.26h.02v-.07l-.02.07Zm271.26,159.63v.12l.19-.15c-.07,0-.12.02-.19.02Zm9.03,37.63v.1l.07.07-.07-.17Zm12.92,21.76c.02.07.05.12.05.19h.02l-.07-.19Zm2.42,279.52s-.02.07-.02.12l.1-.17s-.05.02-.07.05Zm14.21-22.97v.05l.1-.12s-.07.05-.1.07Zm46.59-84.56l.07.1s.02-.12.05-.17c-.05.02-.07.05-.12.07Z"/>
  <g>
    <g>
      <path class="cls-1" d="m611.77,112.12c.04,5.44-.6,10.9-1.88,16.24-7.06,2.08-13.73,5.17-19.84,9.21-6.28,4.14-11.89,9.25-16.67,15.16-3.46,4.28-6.43,8.94-8.85,13.87-3.61-4.84-6.46-10.18-8.46-15.9,2.78-4.29,5.93-8.35,9.37-12.09,4.87-5.27,10.34-9.92,16.25-13.82,5.8-3.84,12.05-6.99,18.58-9.35,2.42-.89,4.92-1.67,7.43-2.34,1.34-.36,2.7-.69,4.06-.99Z"/>
      <path class="cls-1" d="m608.15,90.84c1.65,4.83,2.75,9.84,3.27,14.92-1.8.37-3.6.8-5.34,1.27-2.69.72-5.36,1.56-7.95,2.51-7,2.53-13.69,5.9-19.9,10.02-6.33,4.18-12.19,9.15-17.41,14.8-2.45,2.65-4.78,5.49-6.93,8.44-.79-3.92-1.2-7.95-1.2-11.98,0-3.71.34-7.43,1.02-11.09.75-.74,1.55-1.48,2.36-2.22,5.52-5.08,11.61-9.61,18.08-13.46,6.19-3.67,12.76-6.75,19.54-9.14,2.74-.97,5.58-1.86,8.44-2.62,1.95-.53,3.97-1.01,6.02-1.44Z"/>
      <path class="cls-1" d="m598.54,72.5c2.85,3.87,5.29,8.04,7.26,12.42-1.79.39-3.58.83-5.31,1.29-3.01.81-6.01,1.74-8.9,2.77-7.17,2.53-14.12,5.78-20.66,9.67-4.85,2.89-9.53,6.15-13.9,9.72,3.38-8.36,8.68-15.95,15.4-22.03,6.16-5.57,13.24-9.74,21.06-12.38,1.64-.55,3.34-1.04,5.05-1.45Z"/>
      <path class="cls-1" d="m576,159.66c1.23,1.35,2.49,2.67,3.76,3.94,2.21,2.21,4.51,4.34,6.86,6.33,5.81,4.97,12.1,9.37,18.7,13.06,4.95,2.79,10.15,5.22,15.48,7.25-2.69.36-5.42.55-8.13.55-6.38,0-12.66-1-18.67-2.96-7.81-2.56-14.92-6.64-21.11-12.12-1.36-1.21-2.68-2.49-3.91-3.8,1.89-4.31,4.25-8.43,7.01-12.26Z"/>
      <path class="cls-1" d="m591.25,144.38c1.22,1.37,2.48,2.7,3.76,3.98,1.99,1.99,4.06,3.89,6.15,5.64,5.68,4.79,11.94,8.92,18.59,12.26,6.79,3.41,14.02,5.99,21.5,7.69,3.65.82,7.4,1.44,11.15,1.83-5.88,5.19-12.59,9.13-19.96,11.7-1.07-.3-2.18-.63-3.39-1.01-7.16-2.25-14.1-5.26-20.64-8.94-6.24-3.49-12.2-7.65-17.7-12.36-2.22-1.89-4.4-3.91-6.5-6-1.46-1.45-2.88-2.96-4.25-4.49,3.37-3.86,7.17-7.32,11.29-10.29Z"/>
      <path class="cls-1" d="m611.59,134.41c5.34,5.08,11.35,9.31,17.89,12.57,6.78,3.38,14,5.68,21.46,6.85,3.79.6,7.66.9,11.5.9,1.78,0,3.57-.07,5.36-.2-2.39,5.56-5.62,10.73-9.61,15.37-5.24-.24-10.47-.95-15.56-2.1-6.98-1.58-13.73-3.99-20.06-7.17-6.21-3.12-12.06-6.97-17.37-11.45-1.95-1.63-3.88-3.41-5.75-5.27-.97-.97-1.94-1.98-2.87-3.01,4.7-2.76,9.74-4.94,15.01-6.49Z"/>
      <path class="cls-1" d="m612.68,70.82c3.58,0,7.18.32,10.71.95,2.42,4.66,4.42,9.55,5.96,14.52,2.13,6.81,3.42,13.86,3.83,20.96.41,6.94,0,13.94-1.22,20.79-.45,2.55-1.02,5.12-1.69,7.62-.36,1.34-.74,2.65-1.17,4-4.73-2.69-9.14-5.97-13.12-9.75,1.73-7.16,2.39-14.48,1.94-21.78-.46-7.56-2.08-14.97-4.8-22.02-2.02-5.22-4.62-10.21-7.75-14.85,2.42-.29,4.87-.44,7.31-.44Z"/>
      <path class="cls-1" d="m631.34,73.78c7.39,2.42,14.14,6.18,20.08,11.21.3,1.15.59,2.37.9,3.74,1.62,7.31,2.5,14.83,2.59,22.35.09,7.2-.54,14.45-1.86,21.54-.54,2.91-1.19,5.81-1.95,8.62-.54,2-1.13,4-1.77,5.93-5-.98-9.89-2.54-14.55-4.63.59-1.78,1.1-3.51,1.57-5.25.72-2.67,1.33-5.41,1.81-8.14,1.31-7.34,1.75-14.83,1.31-22.26-.44-7.61-1.83-15.16-4.11-22.46-1.12-3.6-2.47-7.17-4.02-10.65Z"/>
      <path class="cls-1" d="m659.64,93.48c5.84,7.33,9.9,15.98,11.79,25.12.83,3.98,1.25,8.09,1.25,12.21s-.42,8.22-1.25,12.2c-.34,1.69-.77,3.36-1.25,4.99-2.56.3-5.16.45-7.73.45-2.26,0-4.55-.12-6.81-.34.55-1.73,1.07-3.49,1.54-5.24.8-2.97,1.49-6.03,2.06-9.1,1.4-7.49,2.06-15.15,1.97-22.76-.07-5.86-.6-11.74-1.56-17.52Z"/>
    </g>
    <path class="cls-1" d="m812.49,177.08c-4.54-2.95-14.83,1.68-19.46,1.78-4.63.09-10,1.25-6.85-4.85,3.13-6.1,16.84-13.66,21.96-16.47,5.12-2.82,8.86-8.24,5.42-11.28-3.46-3.04-6.59,3.44-10.87,4.66-4.28,1.21-11.67,5.84-16.39,7.85,2.88-3.47,6.09-7.67,10.1-9.94,4.02-2.27,9.76-3.13,13.26-5.22,3.48-2.08,3.51-6.67.26-7.36-3.26-.7-5.55,1.32-8.46,1.1-1.59-2.51,1.87-4.13-3.74-3.74-5.62.39-14.79,1.04-20.79,4.31-6,3.25-9.88,8.18-14.52,13.67-4.64,5.49-9.41,8.5-12.7,16.64-3.3,8.13-12.9,25.21-19.32,31.98-19.71,20.76-61.6,50.08-78.36,62.15-16.78,12.08-27.15,27.6-31.67,28.09-15.01,1.64-52.86,20.48-54.95,21.73-23.01,13.72-46.39,20.43-61.79,27.08-15.39,6.67-10.06,6.47-21.13,13.13-1.56-3-5.22-5.27-6.56-8.55-1.33-3.29,1.63-13.95,2.72-15.15,5.79-6.37,12.01-11.41,15.23-17.5,2.84-5.39-.22-7.91-2.06-11.01-1.84-3.11-2.62-2.61-4.06-5.21.34-2.39-.86-3.97-2.88-5.29.67-1.93.5-3.51-.34-5.35-3.38-1.9-5.98-4.15-8.59-7.16,2.22-1.68,1.47-8.46-.55-9.02-6.19-1.7-11.44-.72-17.35-1.6-2.09-3.5-2.01-6.07-5.67-9-3.65-2.93-9.58-6.14-13.8-8.91-.52-4.18-1.95-7.29-4.68-10.43,2.63-.57,5.25-.89,7.93-1.03-5.74-2.72-11.26-2.81-17.5-2.58,4.75-3.68,9.72-6.68,15.75-7.3,6.01-.62,10.9,1.5,16.48,3.15-9.83-9.44-21.55-10.15-33.55-4.24,1.56-2.94,3.39-5.66,5.34-8.36-3.64,1.83-7.27,3.47-11.19,4.59,1.33-5.12,3.4-9.96,4.22-15.22-11.03,15.82-23.33,28.22-39.12,39.63-1.69,1.23-4.76,2.48-6.86,4.02-1.28.94-2.54.89-3.95,2.77-17.48,23.38-19.63,39.61-10.38,67.7,9.25,28.08,31.57,40.5,58.22,49.54.21.03.13.06.27.21.01.04.03.08.05.13.34.79.09.35,1.17,2.19,9.8,16.51,21.47,31.97,36.86,44.39-18.18-7.69-30.75-19.32-42.77-34.91-10.19.71-24.62,2.49-33.64,5.29-15.8,4.91-28.54,15.93-43.29,18.79-16.71,3.25-30.9,2.57-46.73,5.83-3.78.79-6.22,1.75-9.78,1.55,5.29-16.16,12.45-46.27,17.46-59.13,5-12.85,9.81-10.58,11.93-19.76,2.1-9.18.58-14.32.84-22.93,1.23-4.63-.46-6.22.89-11.89,1.35-5.69,7.34-19.93,12.15-23.24,4.81-3.31,5.79-11.79,2.84-12.7-8.99-2.8-14.79,12.14-17.91,15.36-3.12,3.24-3.92,12.36-4.14,5-.21-7.34,8.99-25.63,12.57-31.58,3.6-5.95,4.09-14.63-1.51-15.42-5.61-.81-4.72,7.97-8.41,12.14-3.69,4.17-8.5,13.92-12.14,19.19.8-5.56,1.46-12.17,4.2-17.22,2.75-5.04,8.22-9.81,10.54-14.28,2.31-4.45-.53-9.39-4.41-7.98-3.89,1.41-4.97,5.07-8.18,6.76-3.3-1.6-.62-5.65-6.31-1.48-5.69,4.17-14.77,10.9-19.01,18.34-4.24,7.45-4.85,14.93-6.45,23.96-1.61,9.04-3.53,14.34-2.71,25.65.84,11.3,6.4,24.44,1.25,38.12-12.7,33.71-35.85,64.73-53.59,96.53-.04.09-.12.24-.15.35-5.44,15.13.04,26.92,13.57,33.79,5.48,2.77,14.2,3.02,18.24,3.7,21.51,3.65,55.84-1.56,72.6-1.47,24.85.14,33.35-.98,53.79,5.4,20.43,6.38,30.8,18.53,47.62,34.16,12.85,11.96,27.34,34.62,39.49,49.49.04.05.18.23.26.32.09.1.44.62.62.81.19.21.62.8.75.95.13.15.06.06.13.17,15.4,17.11,32.45,31.73,50.3,46.18-15.88-10.68-31.73-21.16-46.35-33.64-5.38,15.09-12.54,25.37-20.07,40.28-5.66,11.22-9.09,26.49-10.79,40.03-.24,1.97-.75,8.34-.83,9.91-.31,6.67,2.04,9.2,1.46,15.63-1.23,13.59-7.53,17.39-16.03,31.26-8.51,13.89-12.15,40.17-15.32,58.24-2.88-11.07-6.62-19.44-12.95-30.42-6.33-10.98-28.33-29.51-32.53-39.12-4.19-9.6-1.78-14.34.19-21.32,1.99-6.98,14.04-31.33,9.35-39.76-11.48-20.64-34.24-8.89-50.3,1.47-16.06,10.36-24.47,18.49-43.95,26.71-11.97,5.04-24.92,12.85-31.38,22.42-3.04,4.51-15.35,27.38-8.16,35.7,7.18,8.33,25.14-1.15,35.26-4.98,10.11-3.82,24.7-6.66,38.05-5.64,13.35,1.03,18.75,3.1,24.29,22.07,4.59,15.78,13.48,46.01,17.41,67.66,1.64,11.29,7.8,26.91,14.12,35.46,1.28,1.4,24.9,33.1,54.28,28.83,11.04-1.72,20.15-9.47,27.58-17.81,36.82-41.37,46.31-102.17,84.76-142.03-11.28,24.48-22.56,48.96-33.84,73.44-1.56,3.38-3.13,6.79-3.98,10.42-.75,3.2-.93,6.51-.99,9.8-.26,13.76,1.42,27.55,4.98,40.84-8.86-3.17-18.21-4.96-27.61-5.29-1.14-.04-2.33-.05-3.39.38-1.35.55-2.31,1.74-3.22,2.88-6.07,7.68-12.12,15.49-19.68,21.7-7.56,6.21-16.89,10.78-26.68,10.8-18.86,1.17-37.98-15.85-46.41-24.5-2.84-2.91-9.17-6.08-12.53-7.27-2.97-1.04-6.5-2.53-10.03-3.91-4.85-1.9-8.56-5.89-10.02-10.87-3.46-11.78-7.42-27.61-19.05-29.11-14.78-1.9-33.8,20.82-42.03,30.66-8.24,9.83-8.87,16.93-19.28,25.3-10.42,8.37-25.01,22.34-30.57,32.82-5.56,10.5-5.35,31.92.88,36.91,6.22,4.99,14.41,3.28,20.47-1.26,6.05-4.53,16.4-21.23,25.14-23.72,23.99-6.84,27.69-13.49,54.61-18.34,26.92-4.86,59.35,12.63,88.56,19.11,29.21,6.5,79.16,24.16,111.22,15.3,32.07-8.86,55.66-78.57,64.08-110.06,1.48-5.52,8.99-33.11,10.32-43.02.45-3.3,3.15-18.61,3.57-21.63,5.61-38.97,5.4-75.51-.57-113.64-4.33-1.06-8.34-2.72-12.29-4.82,3.89.32,7.78.63,11.67.86.09,0,.21.01.28.01,1.88.06,3.74.05,5.61.04-5.95-66.02-10.01-133.79-39.01-194.54-.26-1.29-.53-2.58-.76-3.88-.23-1.3-.52-2.79-.68-4.09-.64-5.13-.92-11.13-.79-16.06.13-4.93.43-10.03.57-14.39.14-4.36.48-8.86.68-12.43.21-3.59.52-6.96.62-9.58.12-2.61.31-4.67.45-6.22.14-1.55.17-1.63.24-2.37.08-.75-.03-.4.24-.5.26-.1.23-.18.27.19.53,4.1.55,4.17,1.15,9.43.58,5.26,1.43,14.37,1.81,21.23.19,3.46.55,9.89.86,13.77,0,.13-.19.97.28.18-.13-7.08,6.38-27.08,9.52-30.89,15.48-18.79,42.31-34.31,57.42-44.93,15.1-10.61,11.43-3.48,25.2-11.96,13.79-8.49,29.61-23.58,40.73-38.73,11.1-15.17,32.84-45.55,43.54-55.91,10.7-10.36,12.24-5.12,18.33-11.9,6.1-6.8,6.95-10.29,11.48-17.15,3.46-2.01,1.92-5.31,6.38-7.51,4.48-2.19,16.71-2.82,21.23-3.37,4.5-.55,11.43-4.75,6.89-7.71Zm-485.18,474.43c-1.79.88-4.26,1.97-5.86,3.11-3.56,2.5-6.8,6.05-10.34,8.74-7.25,5.79-15.23,10.68-23.74,14.38-5.29,2.32-10.79,4.02-16.35,5.51-3.2.99-5.93,2.8-8.91,4.46-4,2.23-7.98,4.48-12.07,6.56,3.62-2.82,7.34-5.48,11.04-8.16,3.26-2.32,6.72-4.94,10.69-6.11l1.6-.54c8.5-2.94,16.7-6.71,24.36-11.41,5.78-3.46,11.25-7.47,16.46-11.75,1.74-1.47,3.64-3.1,5.67-4.23,3.59-2.08,9.03-3.74,12.86-5.3,4.29-1.57,8.59-3.16,12.95-4.58-5.79,3.16-12.38,6.42-18.35,9.32Zm-36.42,177.49c-1.44,1.38-3.46,3.19-4.63,4.75-2.62,3.47-4.62,7.84-7.17,11.49-5.12,7.74-11.22,14.84-18.18,20.97-4.32,3.83-9.04,7.13-13.88,10.25-2.75,1.93-4.8,4.48-7.12,6.99-3.12,3.34-6.24,6.69-9.48,9.93,2.58-3.78,5.3-7.47,8.01-11.14,2.4-3.21,4.88-6.76,8.31-9.09l1.35-1.01c7.2-5.4,13.84-11.5,19.68-18.34,4.45-5.07,8.42-10.55,12.07-16.22,1.2-1.93,2.51-4.06,4.11-5.78,2.76-3.07,7.43-6.32,10.61-8.98,3.6-2.81,7.2-5.64,10.91-8.33-4.54,4.8-9.82,9.92-14.6,14.51Z"/>
  </g>
</svg>