<?xml version="1.0" encoding="utf-8"?>
<!DOCTYPE svg PUBLIC "-//W3C//DTD SVG 1.1//EN" "http://www.w3.org/Graphics/SVG/1.1/DTD/svg11.dtd">
<!-- Uploaded to: SVG Repo, www.svgrepo.com, Generator: SVG Repo Mixer Tools -->
<svg width="800px" height="800px" viewBox="0 0 24 24" xmlns="http://www.w3.org/2000/svg" xmlns:xlink="http://www.w3.org/1999/xlink" version="1.1" baseProfile="full" enable-background="new 0 0 24.00 24.00" xml:space="preserve">
	<path fill="#000000" fill-opacity="1" stroke-width="0.2" stroke-linejoin="round" d="M 0,21.428L 3.429,21.428L 3.429,17.143L 6.857,17.143L 6.857,21.428L 10.286,21.428L 10.286,13.714L 6.857,13.714L 6.857,10.286L 17.143,10.286L 17.143,13.714L 13.714,13.714L 13.714,21.428L 17.143,21.428L 17.143,17.143L 20.571,17.143L 20.571,21.428L 24,21.428L 24,13.714L 20.571,13.714L 20.571,6.857L 13.714,6.857L 13.714,2.572L 10.286,2.572L 10.286,6.857L 3.429,6.857L 3.429,13.714L 0,13.714L 0,21.428 Z "/>
</svg>
